<svg width="1280" height="720" viewBox="0 0 1280 720" fill="none" xmlns="http://www.w3.org/2000/svg" role="img" aria-label="Placeholder — CLI and GUI views side by side">
  <rect width="1280" height="720" fill="#f5f5f7"/>
  <rect x="0.5" y="0.5" width="1279" height="719" fill="none" stroke="#e6e6e6"/>
  <!-- left: CLI terminal -->
  <g transform="translate(80 110)">
    <rect width="500" height="500" rx="10" fill="#0a0a0a"/>
    <circle cx="26" cy="26" r="6" fill="#3a3c40"/><circle cx="48" cy="26" r="6" fill="#3a3c40"/><circle cx="70" cy="26" r="6" fill="#3a3c40"/>
    <text x="36" y="100" font-family="'Geist Mono', monospace" font-size="26" letter-spacing="2" fill="#d4d6da">8 &#9820;&#9822;&#9821;&#9819;&#9818;&#9821;&#9822;&#9820;</text>
    <text x="36" y="140" font-family="'Geist Mono', monospace" font-size="26" letter-spacing="2" fill="#d4d6da">7 &#9823;&#9823;&#9823;&#9823;&#9823;&#9823;&#9823;&#9823;</text>
    <text x="36" y="180" font-family="'Geist Mono', monospace" font-size="26" letter-spacing="2" fill="#6b7077">6 . . . . . . . .</text>
    <text x="36" y="220" font-family="'Geist Mono', monospace" font-size="26" letter-spacing="2" fill="#6b7077">5 . . . . . . . .</text>
    <text x="36" y="260" font-family="'Geist Mono', monospace" font-size="26" letter-spacing="2" fill="#6b7077">4 . . . . . . . .</text>
    <text x="36" y="300" font-family="'Geist Mono', monospace" font-size="26" letter-spacing="2" fill="#6b7077">3 . . . . . . . .</text>
    <text x="36" y="340" font-family="'Geist Mono', monospace" font-size="26" letter-spacing="2" fill="#d4d6da">2 &#9817;&#9817;&#9817;&#9817;&#9817;&#9817;&#9817;&#9817;</text>
    <text x="36" y="380" font-family="'Geist Mono', monospace" font-size="26" letter-spacing="2" fill="#d4d6da">1 &#9814;&#9816;&#9815;&#9813;&#9812;&#9815;&#9816;&#9814;</text>
    <text x="36" y="430" font-family="'Geist Mono', monospace" font-size="22" fill="#4f46e5">&gt; move e2 e4</text>
  </g>
  <!-- right: GUI window -->
  <g transform="translate(700 110)">
    <rect width="500" height="500" rx="10" fill="#ffffff" stroke="#e6e6e6"/>
    <rect width="500" height="40" rx="10" fill="#0a0a0a"/>
    <rect y="20" width="500" height="20" fill="#0a0a0a"/>
    <text x="20" y="27" font-family="'Geist Mono', monospace" font-size="15" letter-spacing="2" fill="#d4d6da">X11 — chess</text>
    <g transform="translate(50 80)">
      <rect width="400" height="400" fill="#f5f5f7"/>
      <g fill="#0a0a0a">
        <rect x="50" y="0" width="50" height="50"/><rect x="150" y="0" width="50" height="50"/><rect x="250" y="0" width="50" height="50"/><rect x="350" y="0" width="50" height="50"/>
        <rect x="0" y="50" width="50" height="50"/><rect x="100" y="50" width="50" height="50"/><rect x="200" y="50" width="50" height="50"/><rect x="300" y="50" width="50" height="50"/>
        <rect x="50" y="100" width="50" height="50"/><rect x="150" y="100" width="50" height="50"/><rect x="250" y="100" width="50" height="50"/><rect x="350" y="100" width="50" height="50"/>
        <rect x="0" y="150" width="50" height="50"/><rect x="100" y="150" width="50" height="50"/><rect x="200" y="150" width="50" height="50"/><rect x="300" y="150" width="50" height="50"/>
        <rect x="50" y="200" width="50" height="50"/><rect x="150" y="200" width="50" height="50"/><rect x="250" y="200" width="50" height="50"/><rect x="350" y="200" width="50" height="50"/>
        <rect x="0" y="250" width="50" height="50"/><rect x="100" y="250" width="50" height="50"/><rect x="200" y="250" width="50" height="50"/><rect x="300" y="250" width="50" height="50"/>
        <rect x="50" y="300" width="50" height="50"/><rect x="150" y="300" width="50" height="50"/><rect x="250" y="300" width="50" height="50"/><rect x="350" y="300" width="50" height="50"/>
        <rect x="0" y="350" width="50" height="50"/><rect x="100" y="350" width="50" height="50"/><rect x="200" y="350" width="50" height="50"/><rect x="300" y="350" width="50" height="50"/>
      </g>
    </g>
  </g>
  <text x="640" y="680" font-family="'Geist Mono', monospace" font-size="18" letter-spacing="4" fill="#6b7077" text-anchor="middle">PLACEHOLDER · REPLACE WITH REAL SCREENSHOT</text>
</svg>
